<svg width="167" height="50" viewBox="0 0 167 50" fill="none" xmlns="http://www.w3.org/2000/svg">
<g clip-path="url(#clip0_361_2)">
<path d="M25.0562 49.9983C38.8943 49.9983 50.1124 38.8058 50.1124 24.9991C50.1124 11.1925 38.8943 0 25.0562 0C11.218 0 0 11.1925 0 24.9991C0 38.8058 11.218 49.9983 25.0562 49.9983Z" fill="#00FE83"/>
<path d="M14.2127 37.2916H28.5146C35.3181 37.2916 40.8351 31.7889 40.8351 24.9991C40.8351 18.2111 35.3198 12.7067 28.5146 12.7067H17.6608L16.918 18.0091H28.319C32.1651 18.0091 35.2838 21.1207 35.2838 24.9581C35.2838 28.7954 32.1651 31.907 28.319 31.907H20.409L21.3096 25.5109H27.511L28.3087 20.1657H10.2379L9.2807 25.5109H15.8561L14.2127 37.2899V37.2916Z" fill="#0F1D16"/>
<path d="M67.9807 11.5633H58.3998L56.1337 37.4012H66.4299C70.2211 37.4012 73.2335 36.2595 75.383 34.0105C77.5239 31.7684 78.7916 28.5626 79.1502 24.4823C79.9015 15.9107 76.1429 11.5633 67.979 11.5633H67.9807ZM63.68 16.2393H66.8914C69.6138 16.2393 71.4871 16.8675 72.4547 18.0981C73.3827 19.3903 73.7224 21.5401 73.4651 24.484C73.2112 27.3799 72.5233 29.4749 71.422 30.7089C70.3309 31.931 68.5674 32.5489 66.1795 32.5489H62.2528L63.6835 16.2393H63.68Z" fill="white"/>
<path d="M85.1234 10.5621C84.2365 10.5621 83.4766 10.8582 82.8641 11.4435C82.2551 12.0255 81.9069 12.7683 81.8297 13.6497C81.7525 14.5329 81.9721 15.2655 82.4833 15.8234C82.9945 16.3831 83.703 16.6655 84.5882 16.6655C85.4734 16.6655 86.2402 16.3831 86.8732 15.8251C87.5079 15.2655 87.8699 14.5329 87.9471 13.648C88.0243 12.7649 87.7927 12.022 87.2609 11.4384C86.7274 10.8548 86.0086 10.5604 85.1234 10.5604V10.5621Z" fill="white"/>
<path d="M80.0336 37.4012H85.4717L87.1237 18.5705H81.6839L80.0336 37.4012Z" fill="white"/>
<path d="M102.372 20.5097C101.271 18.9128 99.5746 18.105 97.3239 18.105C94.9359 18.105 92.8945 18.9693 91.2562 20.674C89.5991 22.3941 88.6316 24.7339 88.3777 27.6281C88.1255 30.4984 88.6813 32.8604 90.0262 34.649C91.354 36.4752 93.241 37.4012 95.6307 37.4012C97.5966 37.4012 99.2743 36.7491 100.624 35.462L100.446 37.4936C100.343 38.6746 99.9828 39.5612 99.3738 40.1294C98.7666 40.6959 97.787 40.9835 96.4627 40.9835C94.3544 40.9835 93.2633 40.2287 93.1295 38.6763L93.1158 38.5171H88.0826V38.7276C88.0998 40.7764 88.8117 42.375 90.1995 43.4755C91.5753 44.5675 93.5961 45.122 96.2071 45.122C99.0359 45.122 101.324 44.4511 103.009 43.1281C104.706 41.7965 105.673 39.8761 105.889 37.4217L107.543 18.5688H102.693L102.371 20.508L102.372 20.5097ZM97.154 32.7269C95.9618 32.7269 95.0663 32.2819 94.4144 31.3696C93.7625 30.4556 93.5001 29.1976 93.6373 27.6298C93.7745 26.062 94.2566 24.8023 95.0697 23.8901C95.8829 22.9761 96.8555 22.5328 98.0478 22.5328C99.24 22.5328 100.103 22.9881 100.767 23.926C101.429 24.8639 101.698 26.1117 101.564 27.6315C101.431 29.1531 100.943 30.3991 100.117 31.3371C99.2898 32.275 98.3205 32.7303 97.154 32.7303V32.7269Z" fill="white"/>
<path d="M113.228 10.5621C112.341 10.5621 111.581 10.8582 110.969 11.4435C110.36 12.0255 110.011 12.7683 109.934 13.6497C109.857 14.5329 110.077 15.2655 110.588 15.8234C111.099 16.3831 111.808 16.6655 112.693 16.6655C113.578 16.6655 114.345 16.3831 114.978 15.8251C115.612 15.2655 115.974 14.5329 116.052 13.648C116.129 12.7649 115.897 12.022 115.365 11.4384C114.832 10.8548 114.113 10.5604 113.228 10.5604V10.5621Z" fill="white"/>
<path d="M108.138 37.4012H113.576L115.228 18.5705H109.79L108.138 37.4012Z" fill="white"/>
<path d="M125.85 12.8864H120.412L119.908 18.6355L117.407 18.5636L117.047 22.68L119.565 22.5721L118.736 32.0234C118.57 33.9267 118.87 35.3147 119.632 36.1449C120.392 36.9767 121.745 37.3994 123.653 37.3994H127.142L127.53 32.975H125.653C125.087 32.975 124.692 32.8552 124.476 32.6207C124.26 32.3863 124.178 31.9806 124.226 31.4158L125.001 22.5704L128.432 22.6783L128.792 18.5636L125.343 18.6715L125.85 12.8864Z" fill="white"/>
<path d="M145.896 33.3482L146.611 25.1977C147.021 20.5148 144.477 18.1409 139.048 18.1409C134.008 18.1409 131.11 20.1965 130.438 24.2529L130.403 24.4566L135.395 24.5336L135.433 24.3642C135.615 23.5648 135.965 22.9829 136.474 22.6338C136.996 22.2795 137.756 22.098 138.737 22.098C140.705 22.098 141.609 22.6902 141.502 23.9072L141.398 25.107L134.994 26.3633C131.091 27.1181 128.976 29.059 128.707 32.1278C128.554 33.8702 129.043 35.2908 130.158 36.3485C131.268 37.3994 132.831 37.9335 134.803 37.9335C137.176 37.9335 139.114 37.206 140.574 35.77C140.607 36.0405 140.665 36.4889 140.766 37.2454L140.787 37.396H146.398L146.258 37.1085C145.87 36.3092 145.748 35.0409 145.897 33.343L145.896 33.3482ZM136.594 33.8342C135.735 33.8342 135.075 33.6443 134.632 33.2677C134.196 32.898 134.009 32.4222 134.062 31.8112C134.162 30.6678 134.958 29.9695 136.497 29.6769L141.077 28.7252L140.979 29.8463C140.871 31.0735 140.413 32.0542 139.617 32.7645C138.819 33.4765 137.802 33.836 136.594 33.836V33.8342Z" fill="white"/>
<path d="M165.035 20.7853C163.726 19.007 161.934 18.105 159.71 18.105C157.278 18.105 155.317 18.9488 153.874 20.6141L153.9 18.5688H149.049L146.759 44.6924H152.197L152.958 36.0165C154.058 37.3395 155.607 38.0088 157.571 38.0088C159.963 38.0088 162.025 37.0589 163.702 35.1847C165.368 33.3225 166.344 30.8767 166.605 27.9139C166.862 24.9752 166.336 22.5773 165.037 20.7853H165.035ZM157.841 22.6731C159.029 22.6731 159.923 23.1335 160.573 24.0817C161.223 25.0317 161.484 26.3205 161.344 27.9139C161.205 29.5074 160.717 30.8031 159.899 31.765C159.083 32.7234 158.106 33.1907 156.918 33.1907C155.729 33.1907 154.864 32.7234 154.204 31.765C153.542 30.8031 153.277 29.5074 153.418 27.9139C153.557 26.3205 154.042 25.0317 154.861 24.0817C155.677 23.1335 156.652 22.6731 157.841 22.6731Z" fill="white"/>
</g>
<defs>
<clipPath id="clip0_361_2">
<rect width="166.667" height="50" fill="white"/>
</clipPath>
</defs>
</svg>
